Coordinates
version=1
nRows=12
nColumns=24
inDegrees=yes

Units are S.I. units (second, meters, Newtons, ...)
Angles are in degrees.

endheader
time	pelvis_tilt	pelvis_list	pelvis_rotation	pelvis_tx	pelvis_ty	pelvis_tz	hip_flexion_r	hip_adduction_r	hip_rotation_r	knee_angle_r	ankle_angle_r	subtalar_angle_r	mtp_angle_r	hip_flexion_l	hip_adduction_l	hip_rotation_l	knee_angle_l	ankle_angle_l	subtalar_angle_l	mtp_angle_l	lumbar_extension	lumbar_bending	lumbar_rotation
      1.10350000	     -3.21204720	      2.70417760	     -0.75846111	      0.12504123	      1.05990780	      0.28449951	     24.07332094	     -3.17357406	     -3.97479984	    -67.11083971	     -2.96749577	    -15.26227530	      6.02365129	     13.76931955	      6.33264480	     -0.19655461	    -12.97926116	      3.09859406	     -6.78751650	     -0.20416950	      4.20442398	      0.45621465	      0.61327626
      1.10766667	     -3.22149196	      2.70963561	     -0.82759001	      0.13022851	      1.06040633	      0.28453646	     24.60883219	     -3.06698912	     -3.69647901	    -66.66277068	     -2.38427387	    -15.66418561	      5.96280068	     13.44585478	      6.34118553	     -0.20010323	    -12.94712998	      3.32241577	     -6.80101806	     -0.22208977	      4.19897781	      0.46122980	      0.59333866
      1.11183333	     -3.22573211	      2.69784445	     -0.89809165	      0.13544844	      1.06092806	      0.28456674	     25.10840209	     -2.93675307	     -3.41657881	    -66.11459163	     -1.82352996	    -16.06089040	      5.90217447	     13.10866311	      6.33174486	     -0.20811448	    -12.89700457	      3.54463363	     -6.81645548	     -0.24007500	      4.19619780	      0.47799730	      0.57380827
      1.11600000	     -3.24249205	      2.68405249	     -0.95603878	      0.14062620	      1.06141555	      0.28465444	     25.60137034	     -2.79580768	     -3.14201567	    -65.49199769	     -1.26891169	    -16.48874468	      5.81289892	     12.79348485	      6.31474673	     -0.24729277	    -12.86493726	      3.78171806	     -6.81774788	     -0.26815706	      4.16149711	      0.44707966	      0.56494093
      1.12016667	     -3.23274109	      2.68112288	     -1.04621532	      0.14591295	      1.06194980	      0.28464276	     26.03555168	     -2.66708937	     -2.83012878	    -64.77506573	     -0.83362084	    -16.82086114	      5.75683983	     12.41195003	      6.31998654	     -0.21435711	    -12.75934785	      3.96347753	     -6.82107435	     -0.28483332	      4.18769544	      0.50915324	      0.54093348
      1.12433333	     -3.22669642	      2.65862854	     -1.11981201	      0.15116262	      1.06247073	      0.28471189	     26.44600617	     -2.50899700	     -2.53650153	    -63.98019469	     -0.34315943	    -17.21927513	      5.69296090	     12.04630268	      6.29710530	     -0.23403056	    -12.67930897	      4.18032952	     -6.85206909	     -0.30394736	      4.17273052	      0.52777026	      0.52158952
      1.12850000	     -3.21815457	      2.64341925	     -1.19455248	      0.15641763	      1.06297963	      0.28476189	     26.82839176	     -2.35765478	     -2.23448569	    -63.10736783	      0.07489825	    -17.59660176	      5.62753651	     11.66826613	      6.28546132	     -0.23261748	    -12.57702664	      4.37538604	     -6.86609158	     -0.32344104	      4.15391273	      0.54646588	      0.50180870
      1.13266667	     -3.21279007	      2.61798268	     -1.26615607	      0.16169006	      1.06347271	      0.28481443	     27.18302617	     -2.19383209	     -1.93556409	    -62.15244271	      0.45319469	    -17.97631767	      5.55987826	     11.28967872	      6.26437618	     -0.23511929	    -12.46855204	      4.56935513	     -6.88813375	     -0.34362132	      4.13934506	      0.57323418	      0.48035576
      1.13683333	     -3.27001984	      2.59108112	     -1.29303775	      0.16688461	      1.06382053	      0.28487392	     27.58190338	     -2.03787317	     -1.64812353	    -61.12570184	      0.66447327	    -18.15570771	      5.53132733	     10.98782698	      6.24116656	     -0.15999409	    -12.37858880	      4.66033748	     -6.89968572	     -0.35167068	      4.05863373	      0.55274651	      0.46651906
      1.14100000	     -3.15799787	      2.58753946	     -1.39436725	      0.17215655	      1.06443626	      0.28501174	     27.77335779	     -1.88168759	     -1.34894578	    -60.03153570	      0.97821984	    -19.04184258	      5.26867492	     10.47619510	      6.24204442	     -0.21890472	    -12.22869788	      4.99065237	     -6.83026817	     -0.43541576	      3.94989797	      0.54963649	      0.42736580
      1.14516667	     -3.17481497	      2.55353407	     -1.44907891	      0.17755110	      1.06485726	      0.28507688	     28.05191324	     -1.71211070	     -1.05465935	    -58.84349955	      1.21966690	    -19.26865180	      5.19704148	     10.09553462	      6.21561413	     -0.21884093	    -12.08022410	      5.13300280	     -6.89166788	     -0.45891040	      4.02458413	      0.62308558	      0.39905399
      1.14933333	     -3.18001656	      2.53690945	     -1.50590960	      0.18293338	      1.06526070	      0.28515760	     28.29466571	     -1.55971617	     -0.75914125	    -57.60086413	      1.46497989	    -19.60948654	      5.11324090	      9.69310240	      6.20982360	     -0.18992707	    -11.91068387	      5.29874231	     -6.95500598	     -0.48573786	      4.05631185	      0.64370781	      0.36757082
